<?xml version="1.0" encoding="utf-8" standalone="no"?>
<!DOCTYPE svg PUBLIC "-//W3C//DTD SVG 1.1//EN"
  "http://www.w3.org/Graphics/SVG/1.1/DTD/svg11.dtd">
<!-- Created with matplotlib (http://matplotlib.org/) -->
<svg height="594pt" version="1.1" viewBox="0 0 627 594" width="627pt" xmlns="http://www.w3.org/2000/svg" xmlns:xlink="http://www.w3.org/1999/xlink">
 <defs>
  <style type="text/css">
*{stroke-linecap:square;stroke-linejoin:round;}
  </style>
 </defs>
 <g id="figure_1">
  <g id="patch_1">
   <path d="
M-3.55271e-15 594.117
L627.708 594.117
L627.708 0
L-3.55271e-15 0
z
" style="fill:#ffffff;"/>
  </g>
  <g id="axes_1">
   <g id="patch_2">
    <path clip-path="url(#p8c32a14cd7)" d="
M341.508 84.7166
C333.175 84.7166 324.849 85.1832 316.568 86.1143
C308.288 87.0454 300.066 88.4395 291.941 90.29
L341.508 307.917
L341.508 84.7166
z
" style="fill:#003333;stroke:#000000;"/>
   </g>
   <g id="patch_3">
    <path clip-path="url(#p8c32a14cd7)" d="
M291.941 90.29
C284.977 91.876 278.094 93.7954 271.314 96.0414
C264.535 98.2875 257.867 100.858 251.334 103.743
L341.508 307.917
L291.941 90.29
z
" style="fill:#004747;stroke:#000000;"/>
   </g>
   <g id="patch_4">
    <path clip-path="url(#p8c32a14cd7)" d="
M251.334 103.743
C245.236 106.436 239.263 109.401 233.43 112.628
C227.598 115.856 221.914 119.343 216.394 123.08
L341.508 307.917
L251.334 103.743
z
" style="fill:#005b5b;stroke:#000000;"/>
   </g>
   <g id="patch_5">
    <path clip-path="url(#p8c32a14cd7)" d="
M216.394 123.08
C211.86 126.149 207.44 129.384 203.144 132.778
C198.848 136.172 194.678 139.723 190.643 143.423
L341.508 307.917
L216.394 123.08
z
" style="fill:#007070;stroke:#000000;"/>
   </g>
   <g id="patch_6">
    <path clip-path="url(#p8c32a14cd7)" d="
M190.643 143.423
C186.784 146.963 183.05 150.638 179.449 154.44
C175.848 158.242 172.382 162.17 169.057 166.217
L341.508 307.917
L190.643 143.423
z
" style="fill:#008484;stroke:#000000;"/>
   </g>
   <g id="patch_7">
    <path clip-path="url(#p8c32a14cd7)" d="
M169.057 166.217
C165.884 170.079 162.841 174.047 159.934 178.113
C157.026 182.18 154.257 186.343 151.629 190.596
L341.508 307.917
L169.057 166.217
z
" style="fill:#009999;stroke:#000000;"/>
   </g>
   <g id="patch_8">
    <path clip-path="url(#p8c32a14cd7)" d="
M151.629 190.596
C149.377 194.241 147.23 197.95 145.192 201.718
C143.153 205.487 141.223 209.313 139.405 213.193
L341.508 307.917
L151.629 190.596
z
" style="fill:#00adad;stroke:#000000;"/>
   </g>
   <g id="patch_9">
    <path clip-path="url(#p8c32a14cd7)" d="
M139.405 213.193
C137.688 216.857 136.07 220.567 134.555 224.319
C133.039 228.071 131.626 231.864 130.316 235.693
L341.508 307.917
L139.405 213.193
z
" style="fill:#00c1c1;stroke:#000000;"/>
   </g>
   <g id="patch_10">
    <path clip-path="url(#p8c32a14cd7)" d="
M130.316 235.693
C129.161 239.071 128.087 242.476 127.095 245.906
C126.103 249.336 125.194 252.789 124.367 256.263
L341.508 307.917
L130.316 235.693
z
" style="fill:#00d6d6;stroke:#000000;"/>
   </g>
   <g id="patch_11">
    <path clip-path="url(#p8c32a14cd7)" d="
M124.367 256.263
C123.541 259.737 122.798 263.229 122.139 266.739
C121.481 270.248 120.906 273.772 120.417 277.309
L341.508 307.917
L124.367 256.263
z
" style="fill:#00eaea;stroke:#000000;"/>
   </g>
   <g id="patch_12">
    <path clip-path="url(#p8c32a14cd7)" d="
M120.417 277.309
C117.318 299.691 117.636 322.414 121.36 344.7
C125.084 366.987 132.17 388.579 142.377 408.738
C152.583 428.897 165.792 447.389 181.551 463.582
C197.309 479.775 215.436 493.482 235.31 504.233
C255.184 514.984 276.575 522.655 298.752 526.983
C320.929 531.311 343.635 532.247 366.093 529.758
C388.551 527.27 410.501 521.385 431.192 512.306
C451.883 503.227 471.076 491.058 488.114 476.217
C505.152 461.375 519.837 444.032 531.668 424.782
C543.499 405.531 552.338 384.595 557.883 362.691
C563.428 340.786 565.615 318.166 564.368 295.605
C563.122 273.044 558.457 250.803 550.533 229.643
C542.609 208.482 531.518 188.647 517.638 170.817
C503.759 152.987 487.253 137.367 468.684 124.492
C450.115 111.618 429.699 101.637 408.134 94.8924
C386.568 88.1477 364.103 84.7166 341.508 84.7166
L341.508 307.917
L120.417 277.309
z
" style="fill:#00efff;stroke:#000000;"/>
   </g>
   <g id="matplotlib.axis_1"/>
   <g id="matplotlib.axis_2"/>
   <g id="text_1">
    <!-- bbc.co.uk: (35) -->
    <defs>
     <path id="BitstreamVeraSans-Roman-20"/>
     <path d="
M40.5781 39.3125
Q47.6562 37.7969 51.625 33
Q55.6094 28.2188 55.6094 21.1875
Q55.6094 10.4062 48.1875 4.48438
Q40.7656 -1.42188 27.0938 -1.42188
Q22.5156 -1.42188 17.6562 -0.515625
Q12.7969 0.390625 7.625 2.20312
L7.625 11.7188
Q11.7188 9.32812 16.5938 8.10938
Q21.4844 6.89062 26.8125 6.89062
Q36.0781 6.89062 40.9375 10.5469
Q45.7969 14.2031 45.7969 21.1875
Q45.7969 27.6406 41.2812 31.2656
Q36.7656 34.9062 28.7188 34.9062
L20.2188 34.9062
L20.2188 43.0156
L29.1094 43.0156
Q36.375 43.0156 40.2344 45.9219
Q44.0938 48.8281 44.0938 54.2969
Q44.0938 59.9062 40.1094 62.9062
Q36.1406 65.9219 28.7188 65.9219
Q24.6562 65.9219 20.0156 65.0312
Q15.375 64.1562 9.8125 62.3125
L9.8125 71.0938
Q15.4375 72.6562 20.3438 73.4375
Q25.25 74.2188 29.5938 74.2188
Q40.8281 74.2188 47.3594 69.1094
Q53.9062 64.0156 53.9062 55.3281
Q53.9062 49.2656 50.4375 45.0938
Q46.9688 40.9219 40.5781 39.3125" id="BitstreamVeraSans-Roman-33"/>
     <path d="
M8.01562 75.875
L15.8281 75.875
Q23.1406 64.3594 26.7812 53.3125
Q30.4219 42.2812 30.4219 31.3906
Q30.4219 20.4531 26.7812 9.375
Q23.1406 -1.70312 15.8281 -13.1875
L8.01562 -13.1875
Q14.5 -2 17.7031 9.0625
Q20.9062 20.125 20.9062 31.3906
Q20.9062 42.6719 17.7031 53.6562
Q14.5 64.6562 8.01562 75.875" id="BitstreamVeraSans-Roman-29"/>
     <path d="
M31 75.875
Q24.4688 64.6562 21.2812 53.6562
Q18.1094 42.6719 18.1094 31.3906
Q18.1094 20.125 21.3125 9.0625
Q24.5156 -2 31 -13.1875
L23.1875 -13.1875
Q15.875 -1.70312 12.2344 9.375
Q8.59375 20.4531 8.59375 31.3906
Q8.59375 42.2812 12.2031 53.3125
Q15.8281 64.3594 23.1875 75.875
z
" id="BitstreamVeraSans-Roman-28"/>
     <path d="
M10.7969 72.9062
L49.5156 72.9062
L49.5156 64.5938
L19.8281 64.5938
L19.8281 46.7344
Q21.9688 47.4688 24.1094 47.8281
Q26.2656 48.1875 28.4219 48.1875
Q40.625 48.1875 47.75 41.5
Q54.8906 34.8125 54.8906 23.3906
Q54.8906 11.625 47.5625 5.09375
Q40.2344 -1.42188 26.9062 -1.42188
Q22.3125 -1.42188 17.5469 -0.640625
Q12.7969 0.140625 7.71875 1.70312
L7.71875 11.625
Q12.1094 9.23438 16.7969 8.0625
Q21.4844 6.89062 26.7031 6.89062
Q35.1562 6.89062 40.0781 11.3281
Q45.0156 15.7656 45.0156 23.3906
Q45.0156 31 40.0781 35.4375
Q35.1562 39.8906 26.7031 39.8906
Q22.75 39.8906 18.8125 39.0156
Q14.8906 38.1406 10.7969 36.2812
z
" id="BitstreamVeraSans-Roman-35"/>
     <path d="
M30.6094 48.3906
Q23.3906 48.3906 19.1875 42.75
Q14.9844 37.1094 14.9844 27.2969
Q14.9844 17.4844 19.1562 11.8438
Q23.3438 6.20312 30.6094 6.20312
Q37.7969 6.20312 41.9844 11.8594
Q46.1875 17.5312 46.1875 27.2969
Q46.1875 37.0156 41.9844 42.7031
Q37.7969 48.3906 30.6094 48.3906
M30.6094 56
Q42.3281 56 49.0156 48.375
Q55.7188 40.7656 55.7188 27.2969
Q55.7188 13.875 49.0156 6.21875
Q42.3281 -1.42188 30.6094 -1.42188
Q18.8438 -1.42188 12.1719 6.21875
Q5.51562 13.875 5.51562 27.2969
Q5.51562 40.7656 12.1719 48.375
Q18.8438 56 30.6094 56" id="BitstreamVeraSans-Roman-6f"/>
     <path d="
M9.07812 75.9844
L18.1094 75.9844
L18.1094 31.1094
L44.9219 54.6875
L56.3906 54.6875
L27.3906 29.1094
L57.625 0
L45.9062 0
L18.1094 26.7031
L18.1094 0
L9.07812 0
z
" id="BitstreamVeraSans-Roman-6b"/>
     <path d="
M11.7188 12.4062
L22.0156 12.4062
L22.0156 0
L11.7188 0
z

M11.7188 51.7031
L22.0156 51.7031
L22.0156 39.3125
L11.7188 39.3125
z
" id="BitstreamVeraSans-Roman-3a"/>
     <path d="
M10.6875 12.4062
L21 12.4062
L21 0
L10.6875 0
z
" id="BitstreamVeraSans-Roman-2e"/>
     <path d="
M8.5 21.5781
L8.5 54.6875
L17.4844 54.6875
L17.4844 21.9219
Q17.4844 14.1562 20.5 10.2656
Q23.5312 6.39062 29.5938 6.39062
Q36.8594 6.39062 41.0781 11.0312
Q45.3125 15.6719 45.3125 23.6875
L45.3125 54.6875
L54.2969 54.6875
L54.2969 0
L45.3125 0
L45.3125 8.40625
Q42.0469 3.42188 37.7188 1
Q33.4062 -1.42188 27.6875 -1.42188
Q18.2656 -1.42188 13.375 4.4375
Q8.5 10.2969 8.5 21.5781" id="BitstreamVeraSans-Roman-75"/>
     <path d="
M48.7812 52.5938
L48.7812 44.1875
Q44.9688 46.2969 41.1406 47.3438
Q37.3125 48.3906 33.4062 48.3906
Q24.6562 48.3906 19.8125 42.8438
Q14.9844 37.3125 14.9844 27.2969
Q14.9844 17.2812 19.8125 11.7344
Q24.6562 6.20312 33.4062 6.20312
Q37.3125 6.20312 41.1406 7.25
Q44.9688 8.29688 48.7812 10.4062
L48.7812 2.09375
Q45.0156 0.34375 40.9844 -0.53125
Q36.9688 -1.42188 32.4219 -1.42188
Q20.0625 -1.42188 12.7812 6.34375
Q5.51562 14.1094 5.51562 27.2969
Q5.51562 40.6719 12.8594 48.3281
Q20.2188 56 33.0156 56
Q37.1562 56 41.1094 55.1406
Q45.0625 54.2969 48.7812 52.5938" id="BitstreamVeraSans-Roman-63"/>
     <path d="
M48.6875 27.2969
Q48.6875 37.2031 44.6094 42.8438
Q40.5312 48.4844 33.4062 48.4844
Q26.2656 48.4844 22.1875 42.8438
Q18.1094 37.2031 18.1094 27.2969
Q18.1094 17.3906 22.1875 11.75
Q26.2656 6.10938 33.4062 6.10938
Q40.5312 6.10938 44.6094 11.75
Q48.6875 17.3906 48.6875 27.2969
M18.1094 46.3906
Q20.9531 51.2656 25.2656 53.625
Q29.5938 56 35.5938 56
Q45.5625 56 51.7812 48.0938
Q58.0156 40.1875 58.0156 27.2969
Q58.0156 14.4062 51.7812 6.48438
Q45.5625 -1.42188 35.5938 -1.42188
Q29.5938 -1.42188 25.2656 0.953125
Q20.9531 3.32812 18.1094 8.20312
L18.1094 0
L9.07812 0
L9.07812 75.9844
L18.1094 75.9844
z
" id="BitstreamVeraSans-Roman-62"/>
    </defs>
    <g transform="translate(239.736827567 67.0739090939)scale(0.1 -0.1)">
     <use xlink:href="#BitstreamVeraSans-Roman-62"/>
     <use x="63.4765625" xlink:href="#BitstreamVeraSans-Roman-62"/>
     <use x="126.953125" xlink:href="#BitstreamVeraSans-Roman-63"/>
     <use x="181.93359375" xlink:href="#BitstreamVeraSans-Roman-2e"/>
     <use x="213.720703125" xlink:href="#BitstreamVeraSans-Roman-63"/>
     <use x="268.701171875" xlink:href="#BitstreamVeraSans-Roman-6f"/>
     <use x="328.1328125" xlink:href="#BitstreamVeraSans-Roman-2e"/>
     <use x="359.919921875" xlink:href="#BitstreamVeraSans-Roman-75"/>
     <use x="423.298828125" xlink:href="#BitstreamVeraSans-Roman-6b"/>
     <use x="481.208984375" xlink:href="#BitstreamVeraSans-Roman-3a"/>
     <use x="514.900390625" xlink:href="#BitstreamVeraSans-Roman-20"/>
     <use x="546.6875" xlink:href="#BitstreamVeraSans-Roman-28"/>
     <use x="585.701171875" xlink:href="#BitstreamVeraSans-Roman-33"/>
     <use x="649.32421875" xlink:href="#BitstreamVeraSans-Roman-35"/>
     <use x="712.947265625" xlink:href="#BitstreamVeraSans-Roman-29"/>
    </g>
   </g>
   <g id="text_2">
    <!-- nytimes.com: (30) -->
    <defs>
     <path d="
M31.7812 66.4062
Q24.1719 66.4062 20.3281 58.9062
Q16.5 51.4219 16.5 36.375
Q16.5 21.3906 20.3281 13.8906
Q24.1719 6.39062 31.7812 6.39062
Q39.4531 6.39062 43.2812 13.8906
Q47.125 21.3906 47.125 36.375
Q47.125 51.4219 43.2812 58.9062
Q39.4531 66.4062 31.7812 66.4062
M31.7812 74.2188
Q44.0469 74.2188 50.5156 64.5156
Q56.9844 54.8281 56.9844 36.375
Q56.9844 17.9688 50.5156 8.26562
Q44.0469 -1.42188 31.7812 -1.42188
Q19.5312 -1.42188 13.0625 8.26562
Q6.59375 17.9688 6.59375 36.375
Q6.59375 54.8281 13.0625 64.5156
Q19.5312 74.2188 31.7812 74.2188" id="BitstreamVeraSans-Roman-30"/>
     <path d="
M54.8906 33.0156
L54.8906 0
L45.9062 0
L45.9062 32.7188
Q45.9062 40.4844 42.875 44.3281
Q39.8438 48.1875 33.7969 48.1875
Q26.5156 48.1875 22.3125 43.5469
Q18.1094 38.9219 18.1094 30.9062
L18.1094 0
L9.07812 0
L9.07812 54.6875
L18.1094 54.6875
L18.1094 46.1875
Q21.3438 51.125 25.7031 53.5625
Q30.0781 56 35.7969 56
Q45.2188 56 50.0469 50.1719
Q54.8906 44.3438 54.8906 33.0156" id="BitstreamVeraSans-Roman-6e"/>
     <path d="
M52 44.1875
Q55.375 50.25 60.0625 53.125
Q64.75 56 71.0938 56
Q79.6406 56 84.2812 50.0156
Q88.9219 44.0469 88.9219 33.0156
L88.9219 0
L79.8906 0
L79.8906 32.7188
Q79.8906 40.5781 77.0938 44.375
Q74.3125 48.1875 68.6094 48.1875
Q61.625 48.1875 57.5625 43.5469
Q53.5156 38.9219 53.5156 30.9062
L53.5156 0
L44.4844 0
L44.4844 32.7188
Q44.4844 40.625 41.7031 44.4062
Q38.9219 48.1875 33.1094 48.1875
Q26.2188 48.1875 22.1562 43.5312
Q18.1094 38.875 18.1094 30.9062
L18.1094 0
L9.07812 0
L9.07812 54.6875
L18.1094 54.6875
L18.1094 46.1875
Q21.1875 51.2188 25.4844 53.6094
Q29.7812 56 35.6875 56
Q41.6562 56 45.8281 52.9688
Q50 49.9531 52 44.1875" id="BitstreamVeraSans-Roman-6d"/>
     <path d="
M9.42188 54.6875
L18.4062 54.6875
L18.4062 0
L9.42188 0
z

M9.42188 75.9844
L18.4062 75.9844
L18.4062 64.5938
L9.42188 64.5938
z
" id="BitstreamVeraSans-Roman-69"/>
     <path d="
M32.1719 -5.07812
Q28.375 -14.8438 24.75 -17.8125
Q21.1406 -20.7969 15.0938 -20.7969
L7.90625 -20.7969
L7.90625 -13.2812
L13.1875 -13.2812
Q16.8906 -13.2812 18.9375 -11.5156
Q21 -9.76562 23.4844 -3.21875
L25.0938 0.875
L2.98438 54.6875
L12.5 54.6875
L29.5938 11.9219
L46.6875 54.6875
L56.2031 54.6875
z
" id="BitstreamVeraSans-Roman-79"/>
     <path d="
M56.2031 29.5938
L56.2031 25.2031
L14.8906 25.2031
Q15.4844 15.9219 20.4844 11.0625
Q25.4844 6.20312 34.4219 6.20312
Q39.5938 6.20312 44.4531 7.46875
Q49.3125 8.73438 54.1094 11.2812
L54.1094 2.78125
Q49.2656 0.734375 44.1875 -0.34375
Q39.1094 -1.42188 33.8906 -1.42188
Q20.7969 -1.42188 13.1562 6.1875
Q5.51562 13.8125 5.51562 26.8125
Q5.51562 40.2344 12.7656 48.1094
Q20.0156 56 32.3281 56
Q43.3594 56 49.7812 48.8906
Q56.2031 41.7969 56.2031 29.5938
M47.2188 32.2344
Q47.125 39.5938 43.0938 43.9844
Q39.0625 48.3906 32.4219 48.3906
Q24.9062 48.3906 20.3906 44.1406
Q15.875 39.8906 15.1875 32.1719
z
" id="BitstreamVeraSans-Roman-65"/>
     <path d="
M18.3125 70.2188
L18.3125 54.6875
L36.8125 54.6875
L36.8125 47.7031
L18.3125 47.7031
L18.3125 18.0156
Q18.3125 11.3281 20.1406 9.42188
Q21.9688 7.51562 27.5938 7.51562
L36.8125 7.51562
L36.8125 0
L27.5938 0
Q17.1875 0 13.2344 3.875
Q9.28125 7.76562 9.28125 18.0156
L9.28125 47.7031
L2.6875 47.7031
L2.6875 54.6875
L9.28125 54.6875
L9.28125 70.2188
z
" id="BitstreamVeraSans-Roman-74"/>
     <path d="
M44.2812 53.0781
L44.2812 44.5781
Q40.4844 46.5312 36.375 47.5
Q32.2812 48.4844 27.875 48.4844
Q21.1875 48.4844 17.8438 46.4375
Q14.5 44.3906 14.5 40.2812
Q14.5 37.1562 16.8906 35.375
Q19.2812 33.5938 26.5156 31.9844
L29.5938 31.2969
Q39.1562 29.25 43.1875 25.5156
Q47.2188 21.7812 47.2188 15.0938
Q47.2188 7.46875 41.1875 3.01562
Q35.1562 -1.42188 24.6094 -1.42188
Q20.2188 -1.42188 15.4531 -0.5625
Q10.6875 0.296875 5.42188 2
L5.42188 11.2812
Q10.4062 8.6875 15.2344 7.39062
Q20.0625 6.10938 24.8125 6.10938
Q31.1562 6.10938 34.5625 8.28125
Q37.9844 10.4531 37.9844 14.4062
Q37.9844 18.0625 35.5156 20.0156
Q33.0625 21.9688 24.7031 23.7812
L21.5781 24.5156
Q13.2344 26.2656 9.51562 29.9062
Q5.8125 33.5469 5.8125 39.8906
Q5.8125 47.6094 11.2812 51.7969
Q16.75 56 26.8125 56
Q31.7812 56 36.1719 55.2656
Q40.5781 54.5469 44.2812 53.0781" id="BitstreamVeraSans-Roman-73"/>
    </defs>
    <g transform="translate(173.485497236 77.613308682)scale(0.1 -0.1)">
     <use xlink:href="#BitstreamVeraSans-Roman-6e"/>
     <use x="63.37890625" xlink:href="#BitstreamVeraSans-Roman-79"/>
     <use x="122.55859375" xlink:href="#BitstreamVeraSans-Roman-74"/>
     <use x="161.767578125" xlink:href="#BitstreamVeraSans-Roman-69"/>
     <use x="189.55078125" xlink:href="#BitstreamVeraSans-Roman-6d"/>
     <use x="286.962890625" xlink:href="#BitstreamVeraSans-Roman-65"/>
     <use x="348.486328125" xlink:href="#BitstreamVeraSans-Roman-73"/>
     <use x="400.5859375" xlink:href="#BitstreamVeraSans-Roman-2e"/>
     <use x="432.373046875" xlink:href="#BitstreamVeraSans-Roman-63"/>
     <use x="487.353515625" xlink:href="#BitstreamVeraSans-Roman-6f"/>
     <use x="548.53515625" xlink:href="#BitstreamVeraSans-Roman-6d"/>
     <use x="645.947265625" xlink:href="#BitstreamVeraSans-Roman-3a"/>
     <use x="679.638671875" xlink:href="#BitstreamVeraSans-Roman-20"/>
     <use x="711.42578125" xlink:href="#BitstreamVeraSans-Roman-28"/>
     <use x="750.439453125" xlink:href="#BitstreamVeraSans-Roman-33"/>
     <use x="814.0625" xlink:href="#BitstreamVeraSans-Roman-30"/>
     <use x="877.685546875" xlink:href="#BitstreamVeraSans-Roman-29"/>
    </g>
   </g>
   <g id="text_3">
    <!-- books.google.com: (28) -->
    <defs>
     <path d="
M19.1875 8.29688
L53.6094 8.29688
L53.6094 0
L7.32812 0
L7.32812 8.29688
Q12.9375 14.1094 22.625 23.8906
Q32.3281 33.6875 34.8125 36.5312
Q39.5469 41.8438 41.4219 45.5312
Q43.3125 49.2188 43.3125 52.7812
Q43.3125 58.5938 39.2344 62.25
Q35.1562 65.9219 28.6094 65.9219
Q23.9688 65.9219 18.8125 64.3125
Q13.6719 62.7031 7.8125 59.4219
L7.8125 69.3906
Q13.7656 71.7812 18.9375 73
Q24.125 74.2188 28.4219 74.2188
Q39.75 74.2188 46.4844 68.5469
Q53.2188 62.8906 53.2188 53.4219
Q53.2188 48.9219 51.5312 44.8906
Q49.8594 40.875 45.4062 35.4062
Q44.1875 33.9844 37.6406 27.2188
Q31.1094 20.4531 19.1875 8.29688" id="BitstreamVeraSans-Roman-32"/>
     <path d="
M45.4062 27.9844
Q45.4062 37.75 41.375 43.1094
Q37.3594 48.4844 30.0781 48.4844
Q22.8594 48.4844 18.8281 43.1094
Q14.7969 37.75 14.7969 27.9844
Q14.7969 18.2656 18.8281 12.8906
Q22.8594 7.51562 30.0781 7.51562
Q37.3594 7.51562 41.375 12.8906
Q45.4062 18.2656 45.4062 27.9844
M54.3906 6.78125
Q54.3906 -7.17188 48.1875 -13.9844
Q42 -20.7969 29.2031 -20.7969
Q24.4688 -20.7969 20.2656 -20.0938
Q16.0625 -19.3906 12.1094 -17.9219
L12.1094 -9.1875
Q16.0625 -11.3281 19.9219 -12.3438
Q23.7812 -13.375 27.7812 -13.375
Q36.625 -13.375 41.0156 -8.76562
Q45.4062 -4.15625 45.4062 5.17188
L45.4062 9.625
Q42.625 4.78125 38.2812 2.39062
Q33.9375 0 27.875 0
Q17.8281 0 11.6719 7.65625
Q5.51562 15.3281 5.51562 27.9844
Q5.51562 40.6719 11.6719 48.3281
Q17.8281 56 27.875 56
Q33.9375 56 38.2812 53.6094
Q42.625 51.2188 45.4062 46.3906
L45.4062 54.6875
L54.3906 54.6875
z
" id="BitstreamVeraSans-Roman-67"/>
     <path d="
M31.7812 34.625
Q24.75 34.625 20.7188 30.8594
Q16.7031 27.0938 16.7031 20.5156
Q16.7031 13.9219 20.7188 10.1562
Q24.75 6.39062 31.7812 6.39062
Q38.8125 6.39062 42.8594 10.1719
Q46.9219 13.9688 46.9219 20.5156
Q46.9219 27.0938 42.8906 30.8594
Q38.875 34.625 31.7812 34.625
M21.9219 38.8125
Q15.5781 40.375 12.0312 44.7188
Q8.5 49.0781 8.5 55.3281
Q8.5 64.0625 14.7188 69.1406
Q20.9531 74.2188 31.7812 74.2188
Q42.6719 74.2188 48.875 69.1406
Q55.0781 64.0625 55.0781 55.3281
Q55.0781 49.0781 51.5312 44.7188
Q48 40.375 41.7031 38.8125
Q48.8281 37.1562 52.7969 32.3125
Q56.7812 27.4844 56.7812 20.5156
Q56.7812 9.90625 50.3125 4.23438
Q43.8438 -1.42188 31.7812 -1.42188
Q19.7344 -1.42188 13.25 4.23438
Q6.78125 9.90625 6.78125 20.5156
Q6.78125 27.4844 10.7812 32.3125
Q14.7969 37.1562 21.9219 38.8125
M18.3125 54.3906
Q18.3125 48.7344 21.8438 45.5625
Q25.3906 42.3906 31.7812 42.3906
Q38.1406 42.3906 41.7188 45.5625
Q45.3125 48.7344 45.3125 54.3906
Q45.3125 60.0625 41.7188 63.2344
Q38.1406 66.4062 31.7812 66.4062
Q25.3906 66.4062 21.8438 63.2344
Q18.3125 60.0625 18.3125 54.3906" id="BitstreamVeraSans-Roman-38"/>
     <path d="
M9.42188 75.9844
L18.4062 75.9844
L18.4062 0
L9.42188 0
z
" id="BitstreamVeraSans-Roman-6c"/>
    </defs>
    <g transform="translate(105.241441644 95.8589647922)scale(0.1 -0.1)">
     <use xlink:href="#BitstreamVeraSans-Roman-62"/>
     <use x="63.4765625" xlink:href="#BitstreamVeraSans-Roman-6f"/>
     <use x="124.658203125" xlink:href="#BitstreamVeraSans-Roman-6f"/>
     <use x="185.83984375" xlink:href="#BitstreamVeraSans-Roman-6b"/>
     <use x="243.75" xlink:href="#BitstreamVeraSans-Roman-73"/>
     <use x="295.849609375" xlink:href="#BitstreamVeraSans-Roman-2e"/>
     <use x="327.63671875" xlink:href="#BitstreamVeraSans-Roman-67"/>
     <use x="391.11328125" xlink:href="#BitstreamVeraSans-Roman-6f"/>
     <use x="452.294921875" xlink:href="#BitstreamVeraSans-Roman-6f"/>
     <use x="513.4765625" xlink:href="#BitstreamVeraSans-Roman-67"/>
     <use x="576.953125" xlink:href="#BitstreamVeraSans-Roman-6c"/>
     <use x="604.736328125" xlink:href="#BitstreamVeraSans-Roman-65"/>
     <use x="666.259765625" xlink:href="#BitstreamVeraSans-Roman-2e"/>
     <use x="698.046875" xlink:href="#BitstreamVeraSans-Roman-63"/>
     <use x="753.02734375" xlink:href="#BitstreamVeraSans-Roman-6f"/>
     <use x="814.208984375" xlink:href="#BitstreamVeraSans-Roman-6d"/>
     <use x="911.62109375" xlink:href="#BitstreamVeraSans-Roman-3a"/>
     <use x="945.3125" xlink:href="#BitstreamVeraSans-Roman-20"/>
     <use x="977.099609375" xlink:href="#BitstreamVeraSans-Roman-28"/>
     <use x="1016.11328125" xlink:href="#BitstreamVeraSans-Roman-32"/>
     <use x="1079.73632812" xlink:href="#BitstreamVeraSans-Roman-38"/>
     <use x="1143.359375" xlink:href="#BitstreamVeraSans-Roman-29"/>
    </g>
   </g>
   <g id="text_4">
    <!-- theguardian.com: (23) -->
    <defs>
     <path d="
M41.1094 46.2969
Q39.5938 47.1719 37.8125 47.5781
Q36.0312 48 33.8906 48
Q26.2656 48 22.1875 43.0469
Q18.1094 38.0938 18.1094 28.8125
L18.1094 0
L9.07812 0
L9.07812 54.6875
L18.1094 54.6875
L18.1094 46.1875
Q20.9531 51.1719 25.4844 53.5781
Q30.0312 56 36.5312 56
Q37.4531 56 38.5781 55.875
Q39.7031 55.7656 41.0625 55.5156
z
" id="BitstreamVeraSans-Roman-72"/>
     <path d="
M34.2812 27.4844
Q23.3906 27.4844 19.1875 25
Q14.9844 22.5156 14.9844 16.5
Q14.9844 11.7188 18.1406 8.90625
Q21.2969 6.10938 26.7031 6.10938
Q34.1875 6.10938 38.7031 11.4062
Q43.2188 16.7031 43.2188 25.4844
L43.2188 27.4844
z

M52.2031 31.2031
L52.2031 0
L43.2188 0
L43.2188 8.29688
Q40.1406 3.32812 35.5469 0.953125
Q30.9531 -1.42188 24.3125 -1.42188
Q15.9219 -1.42188 10.9531 3.29688
Q6 8.01562 6 15.9219
Q6 25.1406 12.1719 29.8281
Q18.3594 34.5156 30.6094 34.5156
L43.2188 34.5156
L43.2188 35.4062
Q43.2188 41.6094 39.1406 45
Q35.0625 48.3906 27.6875 48.3906
Q23 48.3906 18.5469 47.2656
Q14.1094 46.1406 10.0156 43.8906
L10.0156 52.2031
Q14.9375 54.1094 19.5781 55.0469
Q24.2188 56 28.6094 56
Q40.4844 56 46.3438 49.8438
Q52.2031 43.7031 52.2031 31.2031" id="BitstreamVeraSans-Roman-61"/>
     <path d="
M54.8906 33.0156
L54.8906 0
L45.9062 0
L45.9062 32.7188
Q45.9062 40.4844 42.875 44.3281
Q39.8438 48.1875 33.7969 48.1875
Q26.5156 48.1875 22.3125 43.5469
Q18.1094 38.9219 18.1094 30.9062
L18.1094 0
L9.07812 0
L9.07812 75.9844
L18.1094 75.9844
L18.1094 46.1875
Q21.3438 51.125 25.7031 53.5625
Q30.0781 56 35.7969 56
Q45.2188 56 50.0469 50.1719
Q54.8906 44.3438 54.8906 33.0156" id="BitstreamVeraSans-Roman-68"/>
     <path d="
M45.4062 46.3906
L45.4062 75.9844
L54.3906 75.9844
L54.3906 0
L45.4062 0
L45.4062 8.20312
Q42.5781 3.32812 38.25 0.953125
Q33.9375 -1.42188 27.875 -1.42188
Q17.9688 -1.42188 11.7344 6.48438
Q5.51562 14.4062 5.51562 27.2969
Q5.51562 40.1875 11.7344 48.0938
Q17.9688 56 27.875 56
Q33.9375 56 38.25 53.625
Q42.5781 51.2656 45.4062 46.3906
M14.7969 27.2969
Q14.7969 17.3906 18.875 11.75
Q22.9531 6.10938 30.0781 6.10938
Q37.2031 6.10938 41.2969 11.75
Q45.4062 17.3906 45.4062 27.2969
Q45.4062 37.2031 41.2969 42.8438
Q37.2031 48.4844 30.0781 48.4844
Q22.9531 48.4844 18.875 42.8438
Q14.7969 37.2031 14.7969 27.2969" id="BitstreamVeraSans-Roman-64"/>
    </defs>
    <g transform="translate(77.8030693709 118.023068053)scale(0.1 -0.1)">
     <use xlink:href="#BitstreamVeraSans-Roman-74"/>
     <use x="39.208984375" xlink:href="#BitstreamVeraSans-Roman-68"/>
     <use x="102.587890625" xlink:href="#BitstreamVeraSans-Roman-65"/>
     <use x="164.111328125" xlink:href="#BitstreamVeraSans-Roman-67"/>
     <use x="227.587890625" xlink:href="#BitstreamVeraSans-Roman-75"/>
     <use x="290.966796875" xlink:href="#BitstreamVeraSans-Roman-61"/>
     <use x="352.24609375" xlink:href="#BitstreamVeraSans-Roman-72"/>
     <use x="391.609375" xlink:href="#BitstreamVeraSans-Roman-64"/>
     <use x="455.0859375" xlink:href="#BitstreamVeraSans-Roman-69"/>
     <use x="482.869140625" xlink:href="#BitstreamVeraSans-Roman-61"/>
     <use x="544.1484375" xlink:href="#BitstreamVeraSans-Roman-6e"/>
     <use x="607.52734375" xlink:href="#BitstreamVeraSans-Roman-2e"/>
     <use x="639.314453125" xlink:href="#BitstreamVeraSans-Roman-63"/>
     <use x="694.294921875" xlink:href="#BitstreamVeraSans-Roman-6f"/>
     <use x="755.4765625" xlink:href="#BitstreamVeraSans-Roman-6d"/>
     <use x="852.888671875" xlink:href="#BitstreamVeraSans-Roman-3a"/>
     <use x="886.580078125" xlink:href="#BitstreamVeraSans-Roman-20"/>
     <use x="918.3671875" xlink:href="#BitstreamVeraSans-Roman-28"/>
     <use x="957.380859375" xlink:href="#BitstreamVeraSans-Roman-32"/>
     <use x="1021.00390625" xlink:href="#BitstreamVeraSans-Roman-33"/>
     <use x="1084.62695312" xlink:href="#BitstreamVeraSans-Roman-29"/>
    </g>
   </g>
   <g id="text_5">
    <!-- bbc.com: (22) -->
    <g transform="translate(94.2961792062 142.232100026)scale(0.1 -0.1)">
     <use xlink:href="#BitstreamVeraSans-Roman-62"/>
     <use x="63.4765625" xlink:href="#BitstreamVeraSans-Roman-62"/>
     <use x="126.953125" xlink:href="#BitstreamVeraSans-Roman-63"/>
     <use x="181.93359375" xlink:href="#BitstreamVeraSans-Roman-2e"/>
     <use x="213.720703125" xlink:href="#BitstreamVeraSans-Roman-63"/>
     <use x="268.701171875" xlink:href="#BitstreamVeraSans-Roman-6f"/>
     <use x="329.8828125" xlink:href="#BitstreamVeraSans-Roman-6d"/>
     <use x="427.294921875" xlink:href="#BitstreamVeraSans-Roman-3a"/>
     <use x="460.986328125" xlink:href="#BitstreamVeraSans-Roman-20"/>
     <use x="492.7734375" xlink:href="#BitstreamVeraSans-Roman-28"/>
     <use x="531.787109375" xlink:href="#BitstreamVeraSans-Roman-32"/>
     <use x="595.41015625" xlink:href="#BitstreamVeraSans-Roman-32"/>
     <use x="659.033203125" xlink:href="#BitstreamVeraSans-Roman-29"/>
    </g>
   </g>
   <g id="text_6">
    <!-- cnn.com: (21) -->
    <defs>
     <path d="
M12.4062 8.29688
L28.5156 8.29688
L28.5156 63.9219
L10.9844 60.4062
L10.9844 69.3906
L28.4219 72.9062
L38.2812 72.9062
L38.2812 8.29688
L54.3906 8.29688
L54.3906 0
L12.4062 0
z
" id="BitstreamVeraSans-Roman-31"/>
    </defs>
    <g transform="translate(72.8510665629 168.26722678)scale(0.1 -0.1)">
     <use xlink:href="#BitstreamVeraSans-Roman-63"/>
     <use x="54.98046875" xlink:href="#BitstreamVeraSans-Roman-6e"/>
     <use x="118.359375" xlink:href="#BitstreamVeraSans-Roman-6e"/>
     <use x="181.73828125" xlink:href="#BitstreamVeraSans-Roman-2e"/>
     <use x="213.525390625" xlink:href="#BitstreamVeraSans-Roman-63"/>
     <use x="268.505859375" xlink:href="#BitstreamVeraSans-Roman-6f"/>
     <use x="329.6875" xlink:href="#BitstreamVeraSans-Roman-6d"/>
     <use x="427.099609375" xlink:href="#BitstreamVeraSans-Roman-3a"/>
     <use x="460.791015625" xlink:href="#BitstreamVeraSans-Roman-20"/>
     <use x="492.578125" xlink:href="#BitstreamVeraSans-Roman-28"/>
     <use x="531.591796875" xlink:href="#BitstreamVeraSans-Roman-32"/>
     <use x="595.21484375" xlink:href="#BitstreamVeraSans-Roman-31"/>
     <use x="658.837890625" xlink:href="#BitstreamVeraSans-Roman-29"/>
    </g>
   </g>
   <g id="text_7">
    <!-- reuters.com: (18) -->
    <g transform="translate(39.0381498207 194.232692847)scale(0.1 -0.1)">
     <use xlink:href="#BitstreamVeraSans-Roman-72"/>
     <use x="38.86328125" xlink:href="#BitstreamVeraSans-Roman-65"/>
     <use x="100.38671875" xlink:href="#BitstreamVeraSans-Roman-75"/>
     <use x="163.765625" xlink:href="#BitstreamVeraSans-Roman-74"/>
     <use x="202.974609375" xlink:href="#BitstreamVeraSans-Roman-65"/>
     <use x="264.498046875" xlink:href="#BitstreamVeraSans-Roman-72"/>
     <use x="305.611328125" xlink:href="#BitstreamVeraSans-Roman-73"/>
     <use x="357.7109375" xlink:href="#BitstreamVeraSans-Roman-2e"/>
     <use x="389.498046875" xlink:href="#BitstreamVeraSans-Roman-63"/>
     <use x="444.478515625" xlink:href="#BitstreamVeraSans-Roman-6f"/>
     <use x="505.66015625" xlink:href="#BitstreamVeraSans-Roman-6d"/>
     <use x="603.072265625" xlink:href="#BitstreamVeraSans-Roman-3a"/>
     <use x="636.763671875" xlink:href="#BitstreamVeraSans-Roman-20"/>
     <use x="668.55078125" xlink:href="#BitstreamVeraSans-Roman-28"/>
     <use x="707.564453125" xlink:href="#BitstreamVeraSans-Roman-31"/>
     <use x="771.1875" xlink:href="#BitstreamVeraSans-Roman-38"/>
     <use x="834.810546875" xlink:href="#BitstreamVeraSans-Roman-29"/>
    </g>
   </g>
   <g id="text_8">
    <!-- taipeitimes.com: (17) -->
    <defs>
     <path d="
M8.20312 72.9062
L55.0781 72.9062
L55.0781 68.7031
L28.6094 0
L18.3125 0
L43.2188 64.5938
L8.20312 64.5938
z
" id="BitstreamVeraSans-Roman-37"/>
     <path d="
M18.1094 8.20312
L18.1094 -20.7969
L9.07812 -20.7969
L9.07812 54.6875
L18.1094 54.6875
L18.1094 46.3906
Q20.9531 51.2656 25.2656 53.625
Q29.5938 56 35.5938 56
Q45.5625 56 51.7812 48.0938
Q58.0156 40.1875 58.0156 27.2969
Q58.0156 14.4062 51.7812 6.48438
Q45.5625 -1.42188 35.5938 -1.42188
Q29.5938 -1.42188 25.2656 0.953125
Q20.9531 3.32812 18.1094 8.20312
M48.6875 27.2969
Q48.6875 37.2031 44.6094 42.8438
Q40.5312 48.4844 33.4062 48.4844
Q26.2656 48.4844 22.1875 42.8438
Q18.1094 37.2031 18.1094 27.2969
Q18.1094 17.3906 22.1875 11.75
Q26.2656 6.10938 33.4062 6.10938
Q40.5312 6.10938 44.6094 11.75
Q48.6875 17.3906 48.6875 27.2969" id="BitstreamVeraSans-Roman-70"/>
    </defs>
    <g transform="translate(7.2 218.718710329)scale(0.1 -0.1)">
     <use xlink:href="#BitstreamVeraSans-Roman-74"/>
     <use x="39.208984375" xlink:href="#BitstreamVeraSans-Roman-61"/>
     <use x="100.48828125" xlink:href="#BitstreamVeraSans-Roman-69"/>
     <use x="128.271484375" xlink:href="#BitstreamVeraSans-Roman-70"/>
     <use x="191.748046875" xlink:href="#BitstreamVeraSans-Roman-65"/>
     <use x="253.271484375" xlink:href="#BitstreamVeraSans-Roman-69"/>
     <use x="281.0546875" xlink:href="#BitstreamVeraSans-Roman-74"/>
     <use x="320.263671875" xlink:href="#BitstreamVeraSans-Roman-69"/>
     <use x="348.046875" xlink:href="#BitstreamVeraSans-Roman-6d"/>
     <use x="445.458984375" xlink:href="#BitstreamVeraSans-Roman-65"/>
     <use x="506.982421875" xlink:href="#BitstreamVeraSans-Roman-73"/>
     <use x="559.08203125" xlink:href="#BitstreamVeraSans-Roman-2e"/>
     <use x="590.869140625" xlink:href="#BitstreamVeraSans-Roman-63"/>
     <use x="645.849609375" xlink:href="#BitstreamVeraSans-Roman-6f"/>
     <use x="707.03125" xlink:href="#BitstreamVeraSans-Roman-6d"/>
     <use x="804.443359375" xlink:href="#BitstreamVeraSans-Roman-3a"/>
     <use x="838.134765625" xlink:href="#BitstreamVeraSans-Roman-20"/>
     <use x="869.921875" xlink:href="#BitstreamVeraSans-Roman-28"/>
     <use x="908.935546875" xlink:href="#BitstreamVeraSans-Roman-31"/>
     <use x="972.55859375" xlink:href="#BitstreamVeraSans-Roman-37"/>
     <use x="1036.18164062" xlink:href="#BitstreamVeraSans-Roman-29"/>
    </g>
   </g>
   <g id="text_9">
    <!-- wsj.com: (15) -->
    <defs>
     <path d="
M4.20312 54.6875
L13.1875 54.6875
L24.4219 12.0156
L35.5938 54.6875
L46.1875 54.6875
L57.4219 12.0156
L68.6094 54.6875
L77.5938 54.6875
L63.2812 0
L52.6875 0
L40.9219 44.8281
L29.1094 0
L18.5 0
z
" id="BitstreamVeraSans-Roman-77"/>
     <path d="
M9.42188 54.6875
L18.4062 54.6875
L18.4062 -0.984375
Q18.4062 -11.4219 14.4219 -16.1094
Q10.4531 -20.7969 1.60938 -20.7969
L-1.8125 -20.7969
L-1.8125 -13.1875
L0.59375 -13.1875
Q5.71875 -13.1875 7.5625 -10.8125
Q9.42188 -8.45312 9.42188 -0.984375
z

M9.42188 75.9844
L18.4062 75.9844
L18.4062 64.5938
L9.42188 64.5938
z
" id="BitstreamVeraSans-Roman-6a"/>
    </defs>
    <g transform="translate(38.7365020641 242.464715423)scale(0.1 -0.1)">
     <use xlink:href="#BitstreamVeraSans-Roman-77"/>
     <use x="81.787109375" xlink:href="#BitstreamVeraSans-Roman-73"/>
     <use x="133.88671875" xlink:href="#BitstreamVeraSans-Roman-6a"/>
     <use x="161.669921875" xlink:href="#BitstreamVeraSans-Roman-2e"/>
     <use x="193.45703125" xlink:href="#BitstreamVeraSans-Roman-63"/>
     <use x="248.4375" xlink:href="#BitstreamVeraSans-Roman-6f"/>
     <use x="309.619140625" xlink:href="#BitstreamVeraSans-Roman-6d"/>
     <use x="407.03125" xlink:href="#BitstreamVeraSans-Roman-3a"/>
     <use x="440.72265625" xlink:href="#BitstreamVeraSans-Roman-20"/>
     <use x="472.509765625" xlink:href="#BitstreamVeraSans-Roman-28"/>
     <use x="511.5234375" xlink:href="#BitstreamVeraSans-Roman-31"/>
     <use x="575.146484375" xlink:href="#BitstreamVeraSans-Roman-35"/>
     <use x="638.76953125" xlink:href="#BitstreamVeraSans-Roman-29"/>
    </g>
   </g>
   <g id="text_10">
    <!-- jacc.gov.au: (15) -->
    <defs>
     <path d="
M2.98438 54.6875
L12.5 54.6875
L29.5938 8.79688
L46.6875 54.6875
L56.2031 54.6875
L35.6875 0
L23.4844 0
z
" id="BitstreamVeraSans-Roman-76"/>
    </defs>
    <g transform="translate(17.4697529733 265.38010079)scale(0.1 -0.1)">
     <use xlink:href="#BitstreamVeraSans-Roman-6a"/>
     <use x="27.783203125" xlink:href="#BitstreamVeraSans-Roman-61"/>
     <use x="89.0625" xlink:href="#BitstreamVeraSans-Roman-63"/>
     <use x="144.04296875" xlink:href="#BitstreamVeraSans-Roman-63"/>
     <use x="199.0234375" xlink:href="#BitstreamVeraSans-Roman-2e"/>
     <use x="230.810546875" xlink:href="#BitstreamVeraSans-Roman-67"/>
     <use x="294.287109375" xlink:href="#BitstreamVeraSans-Roman-6f"/>
     <use x="355.46875" xlink:href="#BitstreamVeraSans-Roman-76"/>
     <use x="406.8984375" xlink:href="#BitstreamVeraSans-Roman-2e"/>
     <use x="438.685546875" xlink:href="#BitstreamVeraSans-Roman-61"/>
     <use x="499.96484375" xlink:href="#BitstreamVeraSans-Roman-75"/>
     <use x="563.34375" xlink:href="#BitstreamVeraSans-Roman-3a"/>
     <use x="597.03515625" xlink:href="#BitstreamVeraSans-Roman-20"/>
     <use x="628.822265625" xlink:href="#BitstreamVeraSans-Roman-28"/>
     <use x="667.8359375" xlink:href="#BitstreamVeraSans-Roman-31"/>
     <use x="731.458984375" xlink:href="#BitstreamVeraSans-Roman-35"/>
     <use x="795.08203125" xlink:href="#BitstreamVeraSans-Roman-29"/>
    </g>
   </g>
   <g id="text_11">
    <!-- others: (758) -->
    <g transform="translate(502.774634299 496.186557851)scale(0.1 -0.1)">
     <use xlink:href="#BitstreamVeraSans-Roman-6f"/>
     <use x="61.181640625" xlink:href="#BitstreamVeraSans-Roman-74"/>
     <use x="100.390625" xlink:href="#BitstreamVeraSans-Roman-68"/>
     <use x="163.76953125" xlink:href="#BitstreamVeraSans-Roman-65"/>
     <use x="225.29296875" xlink:href="#BitstreamVeraSans-Roman-72"/>
     <use x="266.40625" xlink:href="#BitstreamVeraSans-Roman-73"/>
     <use x="318.505859375" xlink:href="#BitstreamVeraSans-Roman-3a"/>
     <use x="352.197265625" xlink:href="#BitstreamVeraSans-Roman-20"/>
     <use x="383.984375" xlink:href="#BitstreamVeraSans-Roman-28"/>
     <use x="422.998046875" xlink:href="#BitstreamVeraSans-Roman-37"/>
     <use x="486.62109375" xlink:href="#BitstreamVeraSans-Roman-35"/>
     <use x="550.244140625" xlink:href="#BitstreamVeraSans-Roman-38"/>
     <use x="613.8671875" xlink:href="#BitstreamVeraSans-Roman-29"/>
    </g>
   </g>
   <g id="text_12">
    <!-- Wed Aug 12 2015 -->
    <defs>
     <path d="
M34.1875 63.1875
L20.7969 26.9062
L47.6094 26.9062
z

M28.6094 72.9062
L39.7969 72.9062
L67.5781 0
L57.3281 0
L50.6875 18.7031
L17.8281 18.7031
L11.1875 0
L0.78125 0
z
" id="BitstreamVeraSans-Roman-41"/>
     <path d="
M3.32812 72.9062
L13.2812 72.9062
L28.6094 11.2812
L43.8906 72.9062
L54.9844 72.9062
L70.3125 11.2812
L85.5938 72.9062
L95.6094 72.9062
L77.2969 0
L64.8906 0
L49.5156 63.2812
L33.9844 0
L21.5781 0
z
" id="BitstreamVeraSans-Roman-57"/>
    </defs>
    <g transform="translate(244.527624171 23.9165625)scale(0.22 -0.22)">
     <use xlink:href="#BitstreamVeraSans-Roman-57"/>
     <use x="93.001953125" xlink:href="#BitstreamVeraSans-Roman-65"/>
     <use x="154.525390625" xlink:href="#BitstreamVeraSans-Roman-64"/>
     <use x="218.001953125" xlink:href="#BitstreamVeraSans-Roman-20"/>
     <use x="249.7890625" xlink:href="#BitstreamVeraSans-Roman-41"/>
     <use x="318.197265625" xlink:href="#BitstreamVeraSans-Roman-75"/>
     <use x="381.576171875" xlink:href="#BitstreamVeraSans-Roman-67"/>
     <use x="445.052734375" xlink:href="#BitstreamVeraSans-Roman-20"/>
     <use x="476.83984375" xlink:href="#BitstreamVeraSans-Roman-31"/>
     <use x="540.462890625" xlink:href="#BitstreamVeraSans-Roman-32"/>
     <use x="604.0859375" xlink:href="#BitstreamVeraSans-Roman-20"/>
     <use x="635.873046875" xlink:href="#BitstreamVeraSans-Roman-32"/>
     <use x="699.49609375" xlink:href="#BitstreamVeraSans-Roman-30"/>
     <use x="763.119140625" xlink:href="#BitstreamVeraSans-Roman-31"/>
     <use x="826.7421875" xlink:href="#BitstreamVeraSans-Roman-35"/>
    </g>
   </g>
  </g>
 </g>
 <defs>
  <clipPath id="p8c32a14cd7">
   <rect height="558.0" width="558.0" x="62.5080929208" y="28.9165625"/>
  </clipPath>
 </defs>
</svg>
